<svg width="28" height="27" viewBox="0 0 28 27" fill="none" xmlns="http://www.w3.org/2000/svg">
<g clip-path="url(#clip0_135_797)">
<path d="M27.5381 13.5C27.5381 6.04415 21.4939 0 14.0381 0C6.58223 0 0.538086 6.04415 0.538086 13.5C0.538086 20.2382 5.47483 25.8232 11.9287 26.836V17.4023H8.50098V13.5H11.9287V10.5258C11.9287 7.14234 13.9442 5.27344 17.0279 5.27344C18.5049 5.27344 20.0498 5.53711 20.0498 5.53711V8.85937H18.3475C16.6705 8.85937 16.1475 9.90001 16.1475 10.9676V13.5H19.8916L19.2931 17.4023H16.1475V26.836C22.6013 25.8232 27.5381 20.2382 27.5381 13.5Z" fill="#1877F2"/>
<path d="M19.2931 17.4023L19.8916 13.5H16.1474V10.9676C16.1474 9.90001 16.6704 8.85937 18.3475 8.85937H20.0498V5.5371C20.0498 5.5371 18.5049 5.27344 17.0278 5.27344C13.9442 5.27344 11.9287 7.14233 11.9287 10.5258V13.5H8.50098V17.4023H11.9287V26.836C12.6265 26.9453 13.3318 27.0002 14.0381 27C14.7557 27 15.4601 26.9438 16.1474 26.836V17.4023H19.2931Z" fill="white"/>
</g>
<defs>
<clipPath id="clip0_135_797">
<rect width="27" height="27" fill="white" transform="translate(0.538086)"/>
</clipPath>
</defs>
</svg>
