<svg width="27" height="27" viewBox="0 0 27 27" fill="none" xmlns="http://www.w3.org/2000/svg">
<g clip-path="url(#clip0_135_792)">
<path d="M13.5388 0.5C8.10994 0.5 6.5222 0.5056 6.21358 0.531203C5.09948 0.62381 4.40622 0.799225 3.65096 1.17526C3.06891 1.46428 2.60987 1.79931 2.15683 2.26895C1.33176 3.12542 0.83172 4.17911 0.650705 5.43162C0.562697 6.03967 0.537095 6.16368 0.531895 9.26954C0.529895 10.3048 0.531895 11.6673 0.531895 13.4949C0.531895 18.9194 0.537895 20.5055 0.563898 20.8135C0.653905 21.8976 0.82392 22.5797 1.18395 23.3257C1.87201 24.7539 3.18612 25.8259 4.73425 26.226C5.2703 26.364 5.86235 26.44 6.62241 26.476C6.94444 26.49 10.2267 26.5 13.511 26.5C16.7953 26.5 20.0796 26.496 20.3936 26.48C21.2737 26.4386 21.7847 26.37 22.3497 26.224C23.1174 26.0271 23.8328 25.6651 24.446 25.1631C25.0592 24.6611 25.5554 24.0313 25.9 23.3177C26.2531 22.5897 26.4321 21.8816 26.5131 20.8541C26.5307 20.6301 26.5381 17.0584 26.5381 13.4915C26.5381 9.924 26.5301 6.3589 26.5125 6.13488C26.4305 5.09079 26.2515 4.38873 25.887 3.64667C25.588 3.03922 25.256 2.58558 24.7739 2.12174C23.9139 1.30007 22.8618 0.800025 21.6079 0.61921C21.0004 0.531403 20.8794 0.5054 17.7712 0.5H13.5388Z" fill="url(#paint0_radial_135_792)"/>
<path d="M13.5388 0.5C8.10994 0.5 6.5222 0.5056 6.21358 0.531203C5.09948 0.62381 4.40622 0.799225 3.65096 1.17526C3.06891 1.46428 2.60987 1.79931 2.15683 2.26895C1.33176 3.12542 0.83172 4.17911 0.650705 5.43162C0.562697 6.03967 0.537095 6.16368 0.531895 9.26954C0.529895 10.3048 0.531895 11.6673 0.531895 13.4949C0.531895 18.9194 0.537895 20.5055 0.563898 20.8135C0.653905 21.8976 0.82392 22.5797 1.18395 23.3257C1.87201 24.7539 3.18612 25.8259 4.73425 26.226C5.2703 26.364 5.86235 26.44 6.62241 26.476C6.94444 26.49 10.2267 26.5 13.511 26.5C16.7953 26.5 20.0796 26.496 20.3936 26.48C21.2737 26.4386 21.7847 26.37 22.3497 26.224C23.1174 26.0271 23.8328 25.6651 24.446 25.1631C25.0592 24.6611 25.5554 24.0313 25.9 23.3177C26.2531 22.5897 26.4321 21.8816 26.5131 20.8541C26.5307 20.6301 26.5381 17.0584 26.5381 13.4915C26.5381 9.924 26.5301 6.3589 26.5125 6.13488C26.4305 5.09079 26.2515 4.38873 25.887 3.64667C25.588 3.03922 25.256 2.58558 24.7739 2.12174C23.9139 1.30007 22.8618 0.800025 21.6079 0.61921C21.0004 0.531403 20.8794 0.5054 17.7712 0.5H13.5388Z" fill="url(#paint1_radial_135_792)"/>
<path d="M13.5328 3.90039C10.9254 3.90039 10.5982 3.91179 9.57407 3.9584C8.55199 4.0052 7.85433 4.16701 7.24388 4.40443C6.61242 4.64965 6.07678 4.97768 5.54313 5.51153C5.00909 6.04517 4.68106 6.58082 4.43504 7.21207C4.19702 7.82272 4.03501 8.52058 3.989 9.54227C3.9434 10.5664 3.9314 10.8938 3.9314 13.5012C3.9314 16.1086 3.943 16.4349 3.9894 17.4589C4.03641 18.481 4.19822 19.1787 4.43544 19.7891C4.68086 20.4206 5.00889 20.9562 5.54273 21.4899C6.07618 22.0239 6.61182 22.3528 7.24288 22.598C7.85373 22.8354 8.55159 22.9972 9.57347 23.044C10.5976 23.0906 10.9246 23.102 13.5318 23.102C16.1394 23.102 16.4657 23.0906 17.4897 23.044C18.5118 22.9972 19.2103 22.8354 19.8211 22.598C20.4524 22.3528 20.9872 22.0239 21.5207 21.4899C22.0547 20.9562 22.3828 20.4206 22.6288 19.7893C22.8648 19.1787 23.0268 18.4808 23.0748 17.4591C23.1208 16.4351 23.1328 16.1086 23.1328 13.5012C23.1328 10.8938 23.1208 10.5666 23.0748 9.54247C23.0268 8.52038 22.8648 7.82272 22.6288 7.21227C22.3828 6.58082 22.0547 6.04517 21.5207 5.51153C20.9866 4.97748 20.4526 4.64945 19.8205 4.40443C19.2085 4.16701 18.5104 4.0052 17.4883 3.9584C16.4643 3.91179 16.1382 3.90039 13.53 3.90039H13.5328ZM12.6715 5.63054C12.9272 5.63014 13.2124 5.63054 13.5328 5.63054C16.0962 5.63054 16.4001 5.63974 17.4123 5.68574C18.3484 5.72855 18.8565 5.88496 19.1949 6.01637C19.6429 6.19039 19.9624 6.3984 20.2982 6.73443C20.6342 7.07046 20.8422 7.39049 21.0166 7.83852C21.1481 8.17655 21.3047 8.6846 21.3473 9.62068C21.3933 10.6328 21.4033 10.9368 21.4033 13.499C21.4033 16.0612 21.3933 16.3652 21.3473 17.3773C21.3045 18.3134 21.1481 18.8215 21.0166 19.1595C20.8426 19.6075 20.6342 19.9266 20.2982 20.2624C19.9622 20.5984 19.6431 20.8064 19.1949 20.9804C18.8569 21.1125 18.3484 21.2685 17.4123 21.3113C16.4003 21.3573 16.0962 21.3673 13.5328 21.3673C10.9692 21.3673 10.6654 21.3573 9.65328 21.3113C8.7172 21.2681 8.20916 21.1117 7.87053 20.9802C7.42249 20.8062 7.10247 20.5982 6.76644 20.2622C6.43041 19.9262 6.22239 19.6069 6.04798 19.1587C5.91656 18.8207 5.75995 18.3126 5.71735 17.3765C5.67134 16.3644 5.66214 16.0604 5.66214 13.4966C5.66214 10.9328 5.67134 10.6304 5.71735 9.61828C5.76015 8.6822 5.91656 8.17415 6.04798 7.83572C6.22199 7.38769 6.43041 7.06766 6.76644 6.73163C7.10247 6.3956 7.42249 6.18758 7.87053 6.01317C8.20896 5.88116 8.7172 5.72515 9.65328 5.68214C10.539 5.64214 10.8822 5.63014 12.6715 5.62814V5.63054ZM18.6576 7.22467C18.4298 7.22467 18.207 7.29225 18.0175 7.41886C17.8281 7.54548 17.6804 7.72543 17.5932 7.93597C17.506 8.14652 17.4832 8.37818 17.5277 8.60168C17.5722 8.82518 17.682 9.03046 17.8431 9.19157C18.0043 9.35268 18.2096 9.46237 18.4331 9.50678C18.6566 9.55119 18.8883 9.52832 19.0988 9.44106C19.3093 9.35379 19.4892 9.20606 19.6158 9.01655C19.7423 8.82704 19.8098 8.60425 19.8097 8.37637C19.8097 7.74032 19.2937 7.22427 18.6576 7.22427V7.22467ZM13.5328 8.57079C10.81 8.57079 8.60239 10.7784 8.60239 13.5012C8.60239 16.224 10.81 18.4306 13.5328 18.4306C16.2556 18.4306 18.4626 16.224 18.4626 13.5012C18.4626 10.7784 16.2556 8.57079 13.5328 8.57079ZM13.5328 10.3009C15.3002 10.3009 16.7331 11.7337 16.7331 13.5012C16.7331 15.2686 15.3002 16.7015 13.5328 16.7015C11.7653 16.7015 10.3325 15.2686 10.3325 13.5012C10.3325 11.7337 11.7653 10.3009 13.5328 10.3009Z" fill="white"/>
</g>
<defs>
<radialGradient id="paint0_radial_135_792" cx="0" cy="0" r="1" gradientUnits="userSpaceOnUse" gradientTransform="translate(7.43917 28.5025) rotate(-90) scale(25.7679 23.9727)">
<stop stop-color="#FFDD55"/>
<stop offset="0.1" stop-color="#FFDD55"/>
<stop offset="0.5" stop-color="#FF543E"/>
<stop offset="1" stop-color="#C837AB"/>
</radialGradient>
<radialGradient id="paint1_radial_135_792" cx="0" cy="0" r="1" gradientUnits="userSpaceOnUse" gradientTransform="translate(-3.82532 2.373) rotate(78.6776) scale(11.5185 47.4917)">
<stop stop-color="#3771C8"/>
<stop offset="0.128" stop-color="#3771C8"/>
<stop offset="1" stop-color="#6600FF" stop-opacity="0"/>
</radialGradient>
<clipPath id="clip0_135_792">
<rect width="26.0071" height="26" fill="white" transform="translate(0.531006 0.5)"/>
</clipPath>
</defs>
</svg>
