<svg width="30" height="25" viewBox="0 0 30 25" fill="none" xmlns="http://www.w3.org/2000/svg">
<g clip-path="url(#clip0_135_789)">
<path d="M9.28716 24.5C20.4315 24.5 26.5259 15.2674 26.5259 7.2613C26.5259 6.9991 26.5205 6.73808 26.5087 6.47815C27.6945 5.62016 28.7179 4.55777 29.5309 3.34078C28.4453 3.82337 27.2771 4.14821 26.0517 4.29467C27.3025 3.54452 28.2628 2.35805 28.7159 0.943553C27.5265 1.64914 26.2254 2.14651 24.8686 2.41423C23.763 1.23658 22.189 0.5 20.446 0.5C17.1002 0.5 14.3869 3.21334 14.3869 6.55792C14.3869 7.03338 14.4401 7.49586 14.5441 7.93941C9.50854 7.68603 5.04338 5.27513 2.05505 1.60918C1.51683 2.53373 1.23372 3.58459 1.23463 4.65439C1.23463 6.75641 2.30427 8.61208 3.93083 9.69767C2.96871 9.66832 2.02769 9.40845 1.18687 8.93989C1.18598 8.96535 1.18598 8.99013 1.18598 9.01728C1.18598 11.9515 3.27442 14.4013 6.04672 14.9565C5.52604 15.0983 4.98876 15.17 4.4491 15.1697C4.06693 15.1695 3.68564 15.1329 3.31039 15.0604C4.08175 17.4678 6.31844 19.2196 8.97025 19.2685C6.89657 20.8939 4.28431 21.862 1.44521 21.862C0.956769 21.862 0.474272 21.8342 0 21.7781C2.68143 23.4969 5.86538 24.4997 9.28745 24.4997" fill="#1DA1F2"/>
</g>
<defs>
<clipPath id="clip0_135_789">
<rect width="29.5309" height="24" fill="white" transform="translate(0 0.5)"/>
</clipPath>
</defs>
</svg>
